<svg width="25" height="20" fill="none" xmlns="http://www.w3.org/2000/svg"><g clip-path="url(#a)"><path fill="#CCC" d="M15 10h3v3h-3z"/><path fill-rule="evenodd" clip-rule="evenodd" d="M17 10h-1v1h-1v1h1v1h1v-1h1v-1h-1v-1Z" fill="#9E9E9E"/><path fill="#CCC" d="M8 10h3v3H8z"/><path fill-rule="evenodd" clip-rule="evenodd" d="M10 10H9v1H8v1h1v1h1v-1h1v-1h-1v-1Z" fill="#9E9E9E"/><path clip-rule="evenodd" d="m3.324 11.363-.073-9.055S3.968.065 5.617.065s3.874 2.572 6.88 2.572c3.008 0 5.265-2.611 7.053-2.611 1.788 0 2.5 2.512 2.5 2.512l.169 10.723s-5.752 6.713-9.17 6.395c-3.416-.319-9.6-4.464-9.699-5.724-.099-1.26-.026-2.57-.026-2.57Z" stroke="#9E9E9E"/><path fill="#9E9E9E" d="M11 14h3v1h-3zM12 13h1v1h-1z"/><path d="M5.793 12.151.145 13.485M5.759 15.968l-3.866.883M20.084 16.154l2.793.554M20.205 12.263l4.742 1.407M4.94 7.593H3.3M20.453 7.528l2.365-2.29M15.515 2.44l-.066 1.502M10.835 2.286l-.028 1.346" stroke="#9E9E9E"/></g><defs><clipPath id="a"><path fill="#fff" d="M0 0h25v20H0z"/></clipPath></defs></svg>