<svg width="24" height="18" fill="none" xmlns="http://www.w3.org/2000/svg"><path d="M1.252 8.087a4.82 4.82 0 0 1 .02-.028l-.02.028Zm0 0C.562 8.067.009 7.539 0 6.887l1.252 1.2Zm2.295-2.412c.59-1.411 1.331-2.946 1.755-3.53C6.016 1.177 7.063.89 7.87.755a25.146 25.146 0 0 1 4.12-.25H12.012c1.377-.03 2.754.055 4.114.25.805.133 1.855.428 2.57 1.39.206.28.495.8.816 1.451.316.642.649 1.38.943 2.073l.282.666.523-.5a1.67 1.67 0 0 1 1.066-.45H22.772c.426.006.722.323.728.659V6.872c-.012.355-.325.684-.77.694h-.988l-.043.454a.7.7 0 0 0 .092.405c.039.07.088.134.112.166.532.767.797 1.666.765 2.575v5.654c0 .348-.31.68-.752.68h-1.614c-.444 0-.752-.332-.752-.68V15.327l-.595.115.095.49-.095-.49h-.003l-.01.002-.037.008a37.912 37.912 0 0 1-.696.127c-.465.083-1.11.193-1.831.303-1.453.222-3.182.438-4.377.438-1.195 0-2.923-.216-4.376-.438a76.863 76.863 0 0 1-2.527-.43l-.038-.008-.01-.001h-.002v-.001l-.096.49.095-.49-.595-.115V16.82c0 .348-.308.68-.751.68H2.08c-.442 0-.75-.332-.75-.68V11.17a4.247 4.247 0 0 1 .778-2.565c.047-.067.096-.13.147-.188l.731-.83H1.275C.823 7.58.507 7.242.5 6.882V6.052c.006-.336.302-.653.728-.659H1.675a1.67 1.67 0 0 1 1.066.45l.526.503.28-.671Z" stroke="#979797"/><path fill-rule="evenodd" clip-rule="evenodd" d="M4.265 11.557c.175.48.728.718 1.237.533l2.154-.784c.441-.181.693-.635.598-1.075-.096-.44-.512-.738-.985-.706l-2.348.253c-.299.033-.57.195-.736.44a.907.907 0 0 0-.112.812l.192.527Z" fill="#9E9E9E"/><ellipse cx="3" cy="16.5" rx="2" ry="1.5" fill="#9E9E9E"/><ellipse cx="21" cy="16.5" rx="2" ry="1.5" fill="#9E9E9E"/><ellipse cx="22" cy="6.5" rx="2" ry="1.5" fill="#9E9E9E"/><ellipse cx="2" cy="6.5" rx="2" ry="1.5" fill="#9E9E9E"/><path fill-rule="evenodd" clip-rule="evenodd" d="M15.756 10.112c-.174.48.097 1.018.605 1.204l2.154.784c.509.185 1.062-.054 1.237-.533l.194-.534a.907.907 0 0 0-.112-.813 1.026 1.026 0 0 0-.735-.44l-2.348-.252c-.44-.049-.849.191-.995.584Z" fill="#9E9E9E"/><path d="m3.189 6.934 8.983 1 9.444-1" stroke="#979797"/></svg>