<svg width="20" height="20" fill="none" xmlns="http://www.w3.org/2000/svg"><path fill-rule="evenodd" clip-rule="evenodd" d="M.354 12.633a10.002 10.002 0 0 0 2.566 4.422 10.006 10.006 0 0 0 4.553 2.621 9.988 9.988 0 0 0 5.064-.003l.005-.002.01-.002a10.003 10.003 0 0 0 4.564-2.652 9.967 9.967 0 0 0 2.534-9.633l-.002-.01a10.002 10.002 0 0 0-2.57-4.43A10.001 10.001 0 0 0 12.555.332l-.019-.005a9.985 9.985 0 0 0-5.074 0l-.016.005-.005.002a10.002 10.002 0 0 0-4.557 2.65A10.002 10.002 0 0 0 .351 7.378l-.003.013a9.968 9.968 0 0 0 .006 5.242Zm2.868 3.938a9.448 9.448 0 0 1-2.308-3.99l1.33-2.304h3.634l1.816 3.147-1.816 3.147H3.222ZM10 19.447c.791 0 1.56-.099 2.294-.282l1.338-2.318-1.817-3.147H8.181l-1.816 3.147 1.337 2.316a9.429 9.429 0 0 0 2.298.284Zm6.779-2.876h-2.667l-1.817-3.147 1.817-3.147h3.634l1.337 2.317a9.45 9.45 0 0 1-2.304 3.977Zm2.304-9.163a9.45 9.45 0 0 0-2.304-3.977h-2.667l-1.817 3.146 1.817 3.147h3.634l1.337-2.316ZM7.703.838a9.431 9.431 0 0 1 4.59-.001l1.339 2.317-1.817 3.147H8.181L6.365 3.154 7.702.838ZM5.876 3.43H3.222A9.448 9.448 0 0 0 .914 7.42l1.33 2.303h3.633l1.817-3.147-1.817-3.146Z" fill="#979797"/></svg>