<svg width="29" height="24" fill="none" xmlns="http://www.w3.org/2000/svg"><g clip-path="url(#a)" fill-rule="evenodd" clip-rule="evenodd" fill="#2C8EDB"><path d="M11.5 18C17.851 18 23 13.97 23 9s-5.149-9-11.5-9S0 4.03 0 9c0 3.205 2.141 6.02 5.365 7.614-.057 1.546-.418 3.377-1.72 4.007-1.93.934 3.847-1.122 6.365-2.696.488.05.985.075 1.49.075Z"/><path d="M11.5 19C18.404 19 24 14.299 24 8.5a9.092 9.092 0 0 0-1.196-4.488C26.486 5.512 29 8.527 29 12c0 3.205-2.141 6.02-5.365 7.614.057 1.546.418 3.377 1.72 4.007 1.93.934-3.847-1.122-6.365-2.696-.488.05-.985.075-1.49.075-2.78 0-5.33-.772-7.32-2.058.434.038.875.058 1.32.058Z"/></g><defs><clipPath id="a"><path fill="#fff" d="M0 0h29v24H0z"/></clipPath></defs></svg>