<svg width="26" height="20" fill="none" xmlns="http://www.w3.org/2000/svg"><path d="M12.418.536 7.044 18.508h-3.58L.775.536h11.642Z" stroke="#979797"/><path fill="#9E9E9E" stroke="#979797" d="M3.5 17.5h19v1h-19z"/><path d="M7.5 8A4.5 4.5 0 0 1 12 3.5h8A4.5 4.5 0 0 1 24.5 8v9a1.5 1.5 0 0 1-1.5 1.5H9A1.5 1.5 0 0 1 7.5 17V8Z" fill="#fff" stroke="#979797"/><path fill="#979797" d="M7 9h18v2H7z"/><path fill-rule="evenodd" clip-rule="evenodd" d="M7.193 14.825h17.082l1.585-3.896-3.255.077-6.358 2.997-6.295-2.921-3.762-.032.036 1.701.967 2.074Z" fill="#979797"/></svg>