<svg width="27" height="27" fill="none" xmlns="http://www.w3.org/2000/svg"><path fill-rule="evenodd" clip-rule="evenodd" d="m12.121 4.899 1-4.036 1.208 4.2-2.208-.164Zm3.014.133 2.26-3.49-.226 4.363-2.034-.873Zm6.08-1.46-3.273 2.564 1.64 1.488 1.633-4.052Zm-.975 4.52 3.93-1.36-2.864 3.3-1.066-1.94Zm5.697 2.59-4.158.005.376 2.183 3.782-2.188Zm-3.545 2.96 3.933 1.349-4.288.837.355-2.185Zm2.901 5.55-3.28-2.555-1.047 1.951 4.327.604Zm-4.61.155 2.27 3.484-3.896-1.98 1.626-1.503Zm-1.127 6.165-1.012-4.033-2.026.893 3.038 3.14Zm-3.726-2.71-.357 4.142-1.85-3.958 2.207-.184Zm-4.647 4.175 1.619-3.83-2.156-.507.537 4.337Zm-1.327-4.461L7.078 25.61l.905-4.275 1.873 1.181Zm-6.216.467 3.634-2.02-1.387-1.727-2.247 3.747Zm1.695-4.328-4.093.728 3.344-2.812.75 2.084ZM.143 15.198l4.107.645-.03-2.214-4.077 1.57Zm3.994-2.368L.463 10.884l4.367-.157-.693 2.103Zm-1.97-5.923 2.84 3.037 1.34-1.763-4.18-1.274Zm4.6.588L5.072 3.7 8.61 6.265l-1.841 1.23ZM8.86 1.61l.369 4.14 2.14-.564L8.86 1.61Z" fill="#929292"/><circle cx="13" cy="14" r="9" stroke="#929292"/><path d="m7.7 22.398 5.07-7.825-4.423-8.175M12.913 14.715h9.344" stroke="#979797"/></svg>